<svg viewBox="0 0 256 256" xmlns="http://www.w3.org/2000/svg"><path d="m38.85 156.19a11.42 11.42 0 1 0 -22.85 0v35.59h22.85z" fill="#40bdff"/><path d="m56.27 129.34v62.44h22.85v-62.44a11.42 11.42 0 1 0 -22.85 0z" fill="#2197f7"/><path d="m96.55 102.49v89.29h22.85v-89.29a11.42 11.42 0 1 0 -22.85 0z" fill="#40bdff"/><path d="m108 91.07a11.36 11.36 0 0 0 -4.5.93 11.44 11.44 0 0 1 6.92 10.5v89.29h9v-89.3a11.44 11.44 0 0 0 -11.42-11.42z" fill="#2197f7"/><path d="m67.7 117.92a11.36 11.36 0 0 0 -4.5.93 11.44 11.44 0 0 1 6.92 10.5v62.44h9v-62.45a11.44 11.44 0 0 0 -11.42-11.42z" fill="#228ed6"/><path d="m27.42 144.77a11.36 11.36 0 0 0 -4.5.93 11.44 11.44 0 0 1 6.92 10.5v35.59h9v-35.6a11.44 11.44 0 0 0 -11.42-11.42z" fill="#228ed6"/><path d="m192.41 64.22a30.93 30.93 0 0 0 -3.19 61.7h6.43a30.93 30.93 0 0 0 -3.24-61.69z" fill="#effafe"/><path d="m200.69 129.92h-16.55a47.37 47.37 0 0 0 -47.32 47.31v14.55h111.18v-14.55a47.37 47.37 0 0 0 -47.31-47.31z" fill="#effafe"/><path d="m192.41 64.22a31 31 0 0 0 -5 .41 30.93 30.93 0 0 1 0 61c.59.1 1.19.18 1.79.25h6.43a30.93 30.93 0 0 0 -3.24-61.69z" fill="#e4ebed"/><path d="m200.69 129.92h-8.82a47.37 47.37 0 0 1 47.31 47.31v14.55h8.82v-14.55a47.37 47.37 0 0 0 -47.31-47.31z" fill="#e4ebed"/><g fill="#263238"><path d="m205.5 126.18a35.43 35.43 0 1 0 -34.17 0 51.89 51.89 0 0 0 -43 51v16.55a2.5 2.5 0 0 0 2.5 2.5h115.17a2.5 2.5 0 0 0 2.5-2.5v-16.5a51.89 51.89 0 0 0 -43-51.05zm-47.5-31.03a30.43 30.43 0 1 1 33.62 30.26h-6.38a30.47 30.47 0 0 1 -27.24-30.26zm85.52 96.13h-110.2v-14a46.87 46.87 0 0 1 46.81-46.81h16.55a46.87 46.87 0 0 1 46.81 46.81z"/><path d="m117.4 196.28a2.5 2.5 0 0 0 2.5-2.5v-91.29a15.92 15.92 0 1 0 -31.85 0v91.29a2.5 2.5 0 0 0 2.5 2.5zm-24.4-93.79a10.92 10.92 0 1 1 21.85 0v88.79h-21.85z"/><path d="m77.12 196.28a2.5 2.5 0 0 0 2.5-2.5v-64.44a15.92 15.92 0 1 0 -31.85 0v64.44a2.5 2.5 0 0 0 2.5 2.5zm-24.35-66.94a10.92 10.92 0 1 1 21.85 0v61.94h-21.85z"/><path d="m10 196.28h26.85a2.5 2.5 0 0 0 2.5-2.5v-37.59a15.92 15.92 0 1 0 -31.85 0v37.59a2.5 2.5 0 0 0 2.5 2.5zm2.5-40.09a10.92 10.92 0 1 1 21.85 0v35.09h-21.85z"/></g><path d="m235 213h-4v-4a1 1 0 0 0 -2 0v4h-4a1 1 0 0 0 0 2h4v4a1 1 0 0 0 2 0v-4h4a1 1 0 0 0 0-2z" fill="#fd0"/><path d="m113 209h-4v-4a1 1 0 0 0 -2 0v4h-4a1 1 0 0 0 0 2h4v4a1 1 0 0 0 2 0v-4h4a1 1 0 0 0 0-2z" fill="#fd0"/><path d="m39.85 215h-4v-4a1 1 0 0 0 -2 0v4h-4a1 1 0 0 0 0 2h4v4a1 1 0 0 0 2 0v-4h4a1 1 0 0 0 0-2z" fill="#40bdff"/><path d="m161.4 227.49h-4v-4a1 1 0 0 0 -2 0v4h-4a1 1 0 0 0 0 2h4v4a1 1 0 0 0 2 0v-4h4a1 1 0 0 0 0-2z" fill="#40bdff"/><path d="m22.07 92.49a6 6 0 1 1 6-6 6 6 0 0 1 -6 6zm0-10a4 4 0 1 0 4 4 4 4 0 0 0 -4-4z" fill="#fd0"/><path d="m239.6 106.93a6 6 0 1 1 6-6 6 6 0 0 1 -6 6zm0-10a4 4 0 1 0 4 4 4 4 0 0 0 -4-4z" fill="#fd0"/><path d="m133.32 64.24h-2.59l1.83-1.83a1 1 0 0 0 -1.41-1.41l-1.83 1.83v-2.59a1 1 0 0 0 -2 0v2.59l-1.83-1.83a1 1 0 0 0 -1.41 1.41l1.83 1.83h-2.59a1 1 0 0 0 0 2h2.59l-1.83 1.83a1 1 0 0 0 1.41 1.41l1.83-1.83v2.59a1 1 0 1 0 2 0v-2.58l1.83 1.83a1 1 0 0 0 1.41-1.41l-1.83-1.83h2.59a1 1 0 0 0 0-2z" fill="#40bdff"/></svg>