<?xml version="1.0" standalone="no"?>
<!DOCTYPE svg PUBLIC "-//W3C//DTD SVG 20010904//EN"
 "http://www.w3.org/TR/2001/REC-SVG-20010904/DTD/svg10.dtd">
<svg version="1.0" xmlns="http://www.w3.org/2000/svg"
 width="80.000000pt" height="80.000000pt" viewBox="0 0 80.000000 80.000000"
 preserveAspectRatio="xMidYMid meet">
<metadata>
Created by potrace 1.11, written by Peter Selinger 2001-2013
</metadata>
<g transform="translate(0.000000,80.000000) scale(0.100000,-0.100000)"
fill="#000000" stroke="none">
<path d="M257 722 c-29 -63 -39 -131 -26 -174 10 -37 -5 -36 -20 1 -14 33 -61
79 -113 110 -44 26 -45 24 -18 -29 32 -62 126 -138 156 -126 24 9 64 112 66
169 3 125 -6 136 -45 49z"/>
<path d="M212 282 c-1 -244 0 -253 31 -248 21 3 22 8 25 97 l3 95 45 -2 c25
-1 47 -4 48 -6 2 -1 25 -41 51 -88 27 -47 50 -87 51 -89 5 -5 64 -9 64 -4 0 3
-27 50 -59 104 -54 88 -58 99 -41 104 37 12 70 63 70 110 0 55 -14 86 -48 109
l-27 17 25 -7 c14 -3 32 -13 41 -20 9 -8 37 -14 66 -14 68 0 103 -27 103 -80
0 -63 -25 -84 -107 -88 -45 -3 -77 -10 -92 -21 l-23 -17 21 -35 c12 -19 21
-27 22 -19 4 48 -1 45 78 41 14 -1 37 -30 75 -95 51 -87 58 -94 83 -91 16 2
29 4 30 4 1 1 -25 45 -58 98 l-59 96 34 24 c86 58 65 197 -33 223 -20 5 -122
9 -227 9 l-191 0 -1 -207z m191 149 c35 -13 53 -70 35 -108 -17 -37 -52 -53
-115 -53 l-53 0 0 85 0 85 54 0 c30 0 66 -4 79 -9z"/>
</g>
</svg>
